<mxfile host="app.diagrams.net" modified="2023-10-25T17:56:27.804Z" agent="Mozilla/5.0 (Windows NT 10.0; Win64; x64; rv:109.0) Gecko/20100101 Firefox/119.0" etag="yRAv4rVKfJLsmU5QNOCk" version="22.0.8" type="device">
  <diagram name="Page-1" id="xUYkTfgZtbNDaVx1HZq4">
    <mxGraphModel dx="6270" dy="4499" grid="1" gridSize="10" guides="1" tooltips="1" connect="1" arrows="1" fold="1" page="1" pageScale="1" pageWidth="827" pageHeight="1169" math="0" shadow="0">
      <root>
        <mxCell id="0" />
        <mxCell id="1" parent="0" />
        <mxCell id="NH7p-Buy24FqWdMprZvy-8" style="edgeStyle=orthogonalEdgeStyle;rounded=1;orthogonalLoop=1;jettySize=auto;html=1;exitX=0.5;exitY=1;exitDx=0;exitDy=0;entryX=0.5;entryY=0;entryDx=0;entryDy=0;labelBackgroundColor=none;fontColor=default;" parent="1" source="NH7p-Buy24FqWdMprZvy-2" target="NH7p-Buy24FqWdMprZvy-3" edge="1">
          <mxGeometry relative="1" as="geometry" />
        </mxCell>
        <mxCell id="NH7p-Buy24FqWdMprZvy-2" value="&lt;font style=&quot;font-size: 14px;&quot;&gt;Tweet&lt;/font&gt;" style="rounded=1;whiteSpace=wrap;html=1;labelBackgroundColor=none;" parent="1" vertex="1">
          <mxGeometry x="370" y="10" width="120" height="60" as="geometry" />
        </mxCell>
        <mxCell id="NH7p-Buy24FqWdMprZvy-9" style="edgeStyle=orthogonalEdgeStyle;rounded=1;orthogonalLoop=1;jettySize=auto;html=1;exitX=0.5;exitY=1;exitDx=0;exitDy=0;entryX=0.5;entryY=0;entryDx=0;entryDy=0;labelBackgroundColor=none;fontColor=default;" parent="1" source="NH7p-Buy24FqWdMprZvy-3" target="NH7p-Buy24FqWdMprZvy-5" edge="1">
          <mxGeometry relative="1" as="geometry" />
        </mxCell>
        <mxCell id="NH7p-Buy24FqWdMprZvy-43" style="edgeStyle=orthogonalEdgeStyle;rounded=1;orthogonalLoop=1;jettySize=auto;html=1;exitX=0.5;exitY=1;exitDx=0;exitDy=0;entryX=0.5;entryY=0;entryDx=0;entryDy=0;" parent="1" source="NH7p-Buy24FqWdMprZvy-3" target="NH7p-Buy24FqWdMprZvy-6" edge="1">
          <mxGeometry relative="1" as="geometry" />
        </mxCell>
        <mxCell id="NH7p-Buy24FqWdMprZvy-3" value="LLM Analysis" style="rounded=1;whiteSpace=wrap;html=1;labelBackgroundColor=none;" parent="1" vertex="1">
          <mxGeometry x="370" y="130" width="120" height="60" as="geometry" />
        </mxCell>
        <mxCell id="NH7p-Buy24FqWdMprZvy-12" style="edgeStyle=orthogonalEdgeStyle;rounded=1;orthogonalLoop=1;jettySize=auto;html=1;exitX=0.5;exitY=1;exitDx=0;exitDy=0;entryX=0.5;entryY=0;entryDx=0;entryDy=0;labelBackgroundColor=none;fontColor=default;" parent="1" source="NH7p-Buy24FqWdMprZvy-5" target="NH7p-Buy24FqWdMprZvy-11" edge="1">
          <mxGeometry relative="1" as="geometry" />
        </mxCell>
        <mxCell id="NH7p-Buy24FqWdMprZvy-5" value="Stored as Complaint" style="rounded=1;whiteSpace=wrap;html=1;labelBackgroundColor=none;" parent="1" vertex="1">
          <mxGeometry x="210" y="250" width="160" height="60" as="geometry" />
        </mxCell>
        <mxCell id="NH7p-Buy24FqWdMprZvy-6" value="Stored as Non-Complaint" style="rounded=1;whiteSpace=wrap;html=1;labelBackgroundColor=none;" parent="1" vertex="1">
          <mxGeometry x="490" y="250" width="160" height="60" as="geometry" />
        </mxCell>
        <mxCell id="NH7p-Buy24FqWdMprZvy-16" style="edgeStyle=orthogonalEdgeStyle;rounded=1;orthogonalLoop=1;jettySize=auto;html=1;exitX=0.5;exitY=1;exitDx=0;exitDy=0;entryX=0.5;entryY=0;entryDx=0;entryDy=0;" parent="1" source="NH7p-Buy24FqWdMprZvy-11" target="NH7p-Buy24FqWdMprZvy-13" edge="1">
          <mxGeometry relative="1" as="geometry" />
        </mxCell>
        <mxCell id="NH7p-Buy24FqWdMprZvy-11" value="Analyze the Most Common Complaints" style="rounded=1;whiteSpace=wrap;html=1;labelBackgroundColor=none;" parent="1" vertex="1">
          <mxGeometry x="310" y="370" width="240" height="60" as="geometry" />
        </mxCell>
        <mxCell id="NH7p-Buy24FqWdMprZvy-17" style="edgeStyle=orthogonalEdgeStyle;rounded=1;orthogonalLoop=1;jettySize=auto;html=1;exitX=0.5;exitY=1;exitDx=0;exitDy=0;entryX=0.5;entryY=0;entryDx=0;entryDy=0;" parent="1" source="NH7p-Buy24FqWdMprZvy-13" target="NH7p-Buy24FqWdMprZvy-14" edge="1">
          <mxGeometry relative="1" as="geometry" />
        </mxCell>
        <mxCell id="NH7p-Buy24FqWdMprZvy-13" value="End of Day Report" style="rounded=1;whiteSpace=wrap;html=1;labelBackgroundColor=none;" parent="1" vertex="1">
          <mxGeometry x="370" y="490" width="120" height="60" as="geometry" />
        </mxCell>
        <mxCell id="NH7p-Buy24FqWdMprZvy-18" style="edgeStyle=orthogonalEdgeStyle;rounded=1;orthogonalLoop=1;jettySize=auto;html=1;exitX=0.5;exitY=1;exitDx=0;exitDy=0;entryX=0.5;entryY=0;entryDx=0;entryDy=0;" parent="1" source="NH7p-Buy24FqWdMprZvy-14" target="NH7p-Buy24FqWdMprZvy-15" edge="1">
          <mxGeometry relative="1" as="geometry" />
        </mxCell>
        <mxCell id="NH7p-Buy24FqWdMprZvy-14" value="LLM Suggestions" style="rounded=1;whiteSpace=wrap;html=1;labelBackgroundColor=none;" parent="1" vertex="1">
          <mxGeometry x="370" y="610" width="120" height="60" as="geometry" />
        </mxCell>
        <mxCell id="NH7p-Buy24FqWdMprZvy-15" value="Actionable insights" style="rounded=1;whiteSpace=wrap;html=1;labelBackgroundColor=none;" parent="1" vertex="1">
          <mxGeometry x="370" y="730" width="120" height="60" as="geometry" />
        </mxCell>
        <mxCell id="NH7p-Buy24FqWdMprZvy-19" style="edgeStyle=orthogonalEdgeStyle;rounded=1;orthogonalLoop=1;jettySize=auto;html=1;exitX=0.5;exitY=1;exitDx=0;exitDy=0;entryX=0.5;entryY=0;entryDx=0;entryDy=0;labelBackgroundColor=none;fontColor=default;" parent="1" source="NH7p-Buy24FqWdMprZvy-20" target="NH7p-Buy24FqWdMprZvy-23" edge="1">
          <mxGeometry relative="1" as="geometry" />
        </mxCell>
        <mxCell id="NH7p-Buy24FqWdMprZvy-20" value="&lt;font style=&quot;font-size: 14px;&quot;&gt;Tweet&lt;/font&gt;" style="rounded=1;whiteSpace=wrap;html=1;labelBackgroundColor=none;" parent="1" vertex="1">
          <mxGeometry x="1191" y="10" width="120" height="60" as="geometry" />
        </mxCell>
        <mxCell id="NH7p-Buy24FqWdMprZvy-22" style="edgeStyle=orthogonalEdgeStyle;rounded=1;orthogonalLoop=1;jettySize=auto;html=1;exitX=0.5;exitY=1;exitDx=0;exitDy=0;labelBackgroundColor=none;fontColor=default;entryX=0.5;entryY=0;entryDx=0;entryDy=0;" parent="1" source="NH7p-Buy24FqWdMprZvy-36" target="NH7p-Buy24FqWdMprZvy-26" edge="1">
          <mxGeometry relative="1" as="geometry">
            <mxPoint x="1410" y="460" as="targetPoint" />
          </mxGeometry>
        </mxCell>
        <mxCell id="NH7p-Buy24FqWdMprZvy-23" value="Tweet Processing" style="rounded=1;whiteSpace=wrap;html=1;labelBackgroundColor=none;" parent="1" vertex="1">
          <mxGeometry x="1191" y="130" width="120" height="60" as="geometry" />
        </mxCell>
        <mxCell id="NH7p-Buy24FqWdMprZvy-41" style="edgeStyle=orthogonalEdgeStyle;rounded=1;orthogonalLoop=1;jettySize=auto;html=1;exitX=0.5;exitY=1;exitDx=0;exitDy=0;entryX=0.5;entryY=0;entryDx=0;entryDy=0;" parent="1" source="NH7p-Buy24FqWdMprZvy-25" target="NH7p-Buy24FqWdMprZvy-39" edge="1">
          <mxGeometry relative="1" as="geometry" />
        </mxCell>
        <mxCell id="NH7p-Buy24FqWdMprZvy-25" value="Stored as Complaint" style="rounded=1;whiteSpace=wrap;html=1;labelBackgroundColor=none;" parent="1" vertex="1">
          <mxGeometry x="1031" y="490" width="160" height="60" as="geometry" />
        </mxCell>
        <mxCell id="NH7p-Buy24FqWdMprZvy-26" value="Stored as Non-Complaint" style="rounded=1;whiteSpace=wrap;html=1;labelBackgroundColor=none;" parent="1" vertex="1">
          <mxGeometry x="1311" y="490" width="160" height="60" as="geometry" />
        </mxCell>
        <mxCell id="NH7p-Buy24FqWdMprZvy-27" style="edgeStyle=orthogonalEdgeStyle;rounded=1;orthogonalLoop=1;jettySize=auto;html=1;exitX=0.5;exitY=1;exitDx=0;exitDy=0;entryX=0.5;entryY=0;entryDx=0;entryDy=0;" parent="1" source="NH7p-Buy24FqWdMprZvy-28" target="NH7p-Buy24FqWdMprZvy-30" edge="1">
          <mxGeometry relative="1" as="geometry" />
        </mxCell>
        <mxCell id="NH7p-Buy24FqWdMprZvy-28" value="Analyze the Most Common Complaints" style="rounded=1;whiteSpace=wrap;html=1;labelBackgroundColor=none;" parent="1" vertex="1">
          <mxGeometry x="1140" y="730" width="220" height="60" as="geometry" />
        </mxCell>
        <mxCell id="NH7p-Buy24FqWdMprZvy-29" style="edgeStyle=orthogonalEdgeStyle;rounded=1;orthogonalLoop=1;jettySize=auto;html=1;exitX=0.5;exitY=1;exitDx=0;exitDy=0;entryX=0.5;entryY=0;entryDx=0;entryDy=0;" parent="1" source="NH7p-Buy24FqWdMprZvy-30" target="NH7p-Buy24FqWdMprZvy-32" edge="1">
          <mxGeometry relative="1" as="geometry" />
        </mxCell>
        <mxCell id="NH7p-Buy24FqWdMprZvy-30" value="End of Day Report" style="rounded=1;whiteSpace=wrap;html=1;labelBackgroundColor=none;" parent="1" vertex="1">
          <mxGeometry x="1191" y="850" width="120" height="60" as="geometry" />
        </mxCell>
        <mxCell id="NH7p-Buy24FqWdMprZvy-31" style="edgeStyle=orthogonalEdgeStyle;rounded=1;orthogonalLoop=1;jettySize=auto;html=1;exitX=0.5;exitY=1;exitDx=0;exitDy=0;entryX=0.5;entryY=0;entryDx=0;entryDy=0;" parent="1" source="NH7p-Buy24FqWdMprZvy-32" target="NH7p-Buy24FqWdMprZvy-33" edge="1">
          <mxGeometry relative="1" as="geometry" />
        </mxCell>
        <mxCell id="NH7p-Buy24FqWdMprZvy-32" value="LLM Suggestions" style="rounded=1;whiteSpace=wrap;html=1;labelBackgroundColor=none;" parent="1" vertex="1">
          <mxGeometry x="1191" y="970" width="120" height="60" as="geometry" />
        </mxCell>
        <mxCell id="NH7p-Buy24FqWdMprZvy-33" value="Actionable insights" style="rounded=1;whiteSpace=wrap;html=1;labelBackgroundColor=none;" parent="1" vertex="1">
          <mxGeometry x="1191" y="1090" width="120" height="60" as="geometry" />
        </mxCell>
        <mxCell id="NH7p-Buy24FqWdMprZvy-35" value="" style="edgeStyle=orthogonalEdgeStyle;rounded=1;orthogonalLoop=1;jettySize=auto;html=1;exitX=0.5;exitY=1;exitDx=0;exitDy=0;entryX=0.5;entryY=0;entryDx=0;entryDy=0;labelBackgroundColor=none;fontColor=default;" parent="1" source="NH7p-Buy24FqWdMprZvy-23" target="NH7p-Buy24FqWdMprZvy-34" edge="1">
          <mxGeometry relative="1" as="geometry">
            <mxPoint x="1251" y="190" as="sourcePoint" />
            <mxPoint x="1391" y="490" as="targetPoint" />
          </mxGeometry>
        </mxCell>
        <mxCell id="NH7p-Buy24FqWdMprZvy-34" value="Tweet Manual Labeling (Complaint or Not)" style="rounded=1;whiteSpace=wrap;html=1;labelBackgroundColor=none;" parent="1" vertex="1">
          <mxGeometry x="1120" y="250" width="260" height="60" as="geometry" />
        </mxCell>
        <mxCell id="NH7p-Buy24FqWdMprZvy-37" value="" style="edgeStyle=orthogonalEdgeStyle;rounded=1;orthogonalLoop=1;jettySize=auto;html=1;exitX=0.5;exitY=1;exitDx=0;exitDy=0;entryX=0.5;entryY=0;entryDx=0;entryDy=0;labelBackgroundColor=none;fontColor=default;" parent="1" source="NH7p-Buy24FqWdMprZvy-34" target="NH7p-Buy24FqWdMprZvy-36" edge="1">
          <mxGeometry relative="1" as="geometry">
            <mxPoint x="1251" y="310" as="sourcePoint" />
            <mxPoint x="1391" y="490" as="targetPoint" />
          </mxGeometry>
        </mxCell>
        <mxCell id="NH7p-Buy24FqWdMprZvy-38" style="edgeStyle=orthogonalEdgeStyle;rounded=1;orthogonalLoop=1;jettySize=auto;html=1;exitX=0.5;exitY=1;exitDx=0;exitDy=0;entryX=0.5;entryY=0;entryDx=0;entryDy=0;" parent="1" source="NH7p-Buy24FqWdMprZvy-36" target="NH7p-Buy24FqWdMprZvy-25" edge="1">
          <mxGeometry relative="1" as="geometry" />
        </mxCell>
        <mxCell id="NH7p-Buy24FqWdMprZvy-36" value="Classification Model" style="rounded=1;whiteSpace=wrap;html=1;labelBackgroundColor=none;" parent="1" vertex="1">
          <mxGeometry x="1180" y="370" width="140" height="60" as="geometry" />
        </mxCell>
        <mxCell id="NH7p-Buy24FqWdMprZvy-42" style="edgeStyle=orthogonalEdgeStyle;rounded=1;orthogonalLoop=1;jettySize=auto;html=1;exitX=0.5;exitY=1;exitDx=0;exitDy=0;entryX=0.5;entryY=0;entryDx=0;entryDy=0;" parent="1" source="NH7p-Buy24FqWdMprZvy-39" target="NH7p-Buy24FqWdMprZvy-28" edge="1">
          <mxGeometry relative="1" as="geometry" />
        </mxCell>
        <mxCell id="NH7p-Buy24FqWdMprZvy-39" value="LLM Analysis" style="rounded=1;whiteSpace=wrap;html=1;labelBackgroundColor=none;" parent="1" vertex="1">
          <mxGeometry x="1190" y="610" width="120" height="60" as="geometry" />
        </mxCell>
        <mxCell id="NH7p-Buy24FqWdMprZvy-44" style="edgeStyle=orthogonalEdgeStyle;rounded=1;orthogonalLoop=1;jettySize=auto;html=1;exitX=0.5;exitY=1;exitDx=0;exitDy=0;entryX=0.5;entryY=0;entryDx=0;entryDy=0;labelBackgroundColor=none;fontColor=default;" parent="1" source="NH7p-Buy24FqWdMprZvy-45" target="NH7p-Buy24FqWdMprZvy-47" edge="1">
          <mxGeometry relative="1" as="geometry" />
        </mxCell>
        <mxCell id="NH7p-Buy24FqWdMprZvy-45" value="&lt;font style=&quot;font-size: 14px;&quot;&gt;Tweet&lt;/font&gt;" style="rounded=1;whiteSpace=wrap;html=1;labelBackgroundColor=none;" parent="1" vertex="1">
          <mxGeometry x="2040" y="14" width="120" height="60" as="geometry" />
        </mxCell>
        <mxCell id="NH7p-Buy24FqWdMprZvy-46" style="edgeStyle=orthogonalEdgeStyle;rounded=1;orthogonalLoop=1;jettySize=auto;html=1;exitX=0.5;exitY=1;exitDx=0;exitDy=0;labelBackgroundColor=none;fontColor=default;entryX=0.5;entryY=0;entryDx=0;entryDy=0;" parent="1" source="NH7p-Buy24FqWdMprZvy-62" target="NH7p-Buy24FqWdMprZvy-50" edge="1">
          <mxGeometry relative="1" as="geometry">
            <mxPoint x="2259" y="464" as="targetPoint" />
          </mxGeometry>
        </mxCell>
        <mxCell id="NH7p-Buy24FqWdMprZvy-47" value="Tweet Processing" style="rounded=1;whiteSpace=wrap;html=1;labelBackgroundColor=none;" parent="1" vertex="1">
          <mxGeometry x="2040" y="134" width="120" height="60" as="geometry" />
        </mxCell>
        <mxCell id="NH7p-Buy24FqWdMprZvy-48" style="edgeStyle=orthogonalEdgeStyle;rounded=1;orthogonalLoop=1;jettySize=auto;html=1;exitX=0.5;exitY=1;exitDx=0;exitDy=0;entryX=0.5;entryY=0;entryDx=0;entryDy=0;" parent="1" source="NH7p-Buy24FqWdMprZvy-49" target="NH7p-Buy24FqWdMprZvy-64" edge="1">
          <mxGeometry relative="1" as="geometry" />
        </mxCell>
        <mxCell id="NH7p-Buy24FqWdMprZvy-49" value="Stored as Complaint" style="rounded=1;whiteSpace=wrap;html=1;labelBackgroundColor=none;" parent="1" vertex="1">
          <mxGeometry x="1880" y="494" width="160" height="60" as="geometry" />
        </mxCell>
        <mxCell id="NH7p-Buy24FqWdMprZvy-50" value="Stored as Non-Complaint" style="rounded=1;whiteSpace=wrap;html=1;labelBackgroundColor=none;" parent="1" vertex="1">
          <mxGeometry x="2160" y="494" width="160" height="60" as="geometry" />
        </mxCell>
        <mxCell id="NH7p-Buy24FqWdMprZvy-51" style="edgeStyle=orthogonalEdgeStyle;rounded=1;orthogonalLoop=1;jettySize=auto;html=1;exitX=0.5;exitY=1;exitDx=0;exitDy=0;entryX=0.5;entryY=0;entryDx=0;entryDy=0;" parent="1" source="NH7p-Buy24FqWdMprZvy-52" target="NH7p-Buy24FqWdMprZvy-54" edge="1">
          <mxGeometry relative="1" as="geometry" />
        </mxCell>
        <mxCell id="NH7p-Buy24FqWdMprZvy-52" value="Analyze the Most Common Complaints" style="rounded=1;whiteSpace=wrap;html=1;labelBackgroundColor=none;" parent="1" vertex="1">
          <mxGeometry x="1990" y="734" width="220" height="60" as="geometry" />
        </mxCell>
        <mxCell id="NH7p-Buy24FqWdMprZvy-53" style="edgeStyle=orthogonalEdgeStyle;rounded=1;orthogonalLoop=1;jettySize=auto;html=1;exitX=0.5;exitY=1;exitDx=0;exitDy=0;entryX=0.5;entryY=0;entryDx=0;entryDy=0;" parent="1" source="NH7p-Buy24FqWdMprZvy-54" target="NH7p-Buy24FqWdMprZvy-56" edge="1">
          <mxGeometry relative="1" as="geometry" />
        </mxCell>
        <mxCell id="NH7p-Buy24FqWdMprZvy-54" value="End of Day Report" style="rounded=1;whiteSpace=wrap;html=1;labelBackgroundColor=none;" parent="1" vertex="1">
          <mxGeometry x="2040" y="854" width="120" height="60" as="geometry" />
        </mxCell>
        <mxCell id="NH7p-Buy24FqWdMprZvy-55" style="edgeStyle=orthogonalEdgeStyle;rounded=1;orthogonalLoop=1;jettySize=auto;html=1;exitX=0.5;exitY=1;exitDx=0;exitDy=0;entryX=0.5;entryY=0;entryDx=0;entryDy=0;" parent="1" source="NH7p-Buy24FqWdMprZvy-56" target="NH7p-Buy24FqWdMprZvy-57" edge="1">
          <mxGeometry relative="1" as="geometry" />
        </mxCell>
        <mxCell id="NH7p-Buy24FqWdMprZvy-56" value="LLM Suggestions" style="rounded=1;whiteSpace=wrap;html=1;labelBackgroundColor=none;" parent="1" vertex="1">
          <mxGeometry x="2040" y="974" width="120" height="60" as="geometry" />
        </mxCell>
        <mxCell id="NH7p-Buy24FqWdMprZvy-57" value="Actionable insights" style="rounded=1;whiteSpace=wrap;html=1;labelBackgroundColor=none;" parent="1" vertex="1">
          <mxGeometry x="2040" y="1094" width="120" height="60" as="geometry" />
        </mxCell>
        <mxCell id="NH7p-Buy24FqWdMprZvy-58" value="" style="edgeStyle=orthogonalEdgeStyle;rounded=1;orthogonalLoop=1;jettySize=auto;html=1;exitX=0.5;exitY=1;exitDx=0;exitDy=0;entryX=0.5;entryY=0;entryDx=0;entryDy=0;labelBackgroundColor=none;fontColor=default;" parent="1" source="NH7p-Buy24FqWdMprZvy-47" target="NH7p-Buy24FqWdMprZvy-59" edge="1">
          <mxGeometry relative="1" as="geometry">
            <mxPoint x="2100" y="194" as="sourcePoint" />
            <mxPoint x="2240" y="494" as="targetPoint" />
          </mxGeometry>
        </mxCell>
        <mxCell id="NH7p-Buy24FqWdMprZvy-59" value="Tweet Manual Labeling (Complaint or Not)" style="rounded=1;whiteSpace=wrap;html=1;labelBackgroundColor=none;" parent="1" vertex="1">
          <mxGeometry x="1969" y="254" width="260" height="60" as="geometry" />
        </mxCell>
        <mxCell id="NH7p-Buy24FqWdMprZvy-60" value="" style="edgeStyle=orthogonalEdgeStyle;rounded=1;orthogonalLoop=1;jettySize=auto;html=1;exitX=0.5;exitY=1;exitDx=0;exitDy=0;entryX=0.5;entryY=0;entryDx=0;entryDy=0;labelBackgroundColor=none;fontColor=default;" parent="1" source="NH7p-Buy24FqWdMprZvy-59" target="NH7p-Buy24FqWdMprZvy-62" edge="1">
          <mxGeometry relative="1" as="geometry">
            <mxPoint x="2100" y="314" as="sourcePoint" />
            <mxPoint x="2240" y="494" as="targetPoint" />
          </mxGeometry>
        </mxCell>
        <mxCell id="NH7p-Buy24FqWdMprZvy-61" style="edgeStyle=orthogonalEdgeStyle;rounded=1;orthogonalLoop=1;jettySize=auto;html=1;exitX=0.5;exitY=1;exitDx=0;exitDy=0;entryX=0.5;entryY=0;entryDx=0;entryDy=0;" parent="1" source="NH7p-Buy24FqWdMprZvy-62" target="NH7p-Buy24FqWdMprZvy-49" edge="1">
          <mxGeometry relative="1" as="geometry" />
        </mxCell>
        <mxCell id="NH7p-Buy24FqWdMprZvy-62" value="Classification Model" style="rounded=1;whiteSpace=wrap;html=1;labelBackgroundColor=none;" parent="1" vertex="1">
          <mxGeometry x="2029" y="374" width="140" height="60" as="geometry" />
        </mxCell>
        <mxCell id="NH7p-Buy24FqWdMprZvy-63" style="edgeStyle=orthogonalEdgeStyle;rounded=1;orthogonalLoop=1;jettySize=auto;html=1;exitX=0.5;exitY=1;exitDx=0;exitDy=0;entryX=0.5;entryY=0;entryDx=0;entryDy=0;" parent="1" source="NH7p-Buy24FqWdMprZvy-64" target="NH7p-Buy24FqWdMprZvy-52" edge="1">
          <mxGeometry relative="1" as="geometry" />
        </mxCell>
        <mxCell id="NH7p-Buy24FqWdMprZvy-64" value="&quot;Complaint Topic&quot; Entity Identification and Linkage" style="rounded=1;whiteSpace=wrap;html=1;labelBackgroundColor=none;fillColor=#fff2cc;strokeColor=#d6b656;" parent="1" vertex="1">
          <mxGeometry x="1960" y="614" width="280" height="60" as="geometry" />
        </mxCell>
        <mxCell id="8oZ6W94PKu67juw2S8TM-5" style="edgeStyle=orthogonalEdgeStyle;rounded=0;orthogonalLoop=1;jettySize=auto;html=1;exitX=0.5;exitY=1;exitDx=0;exitDy=0;entryX=0.5;entryY=0;entryDx=0;entryDy=0;" parent="1" source="8oZ6W94PKu67juw2S8TM-1" target="8oZ6W94PKu67juw2S8TM-2" edge="1">
          <mxGeometry relative="1" as="geometry" />
        </mxCell>
        <mxCell id="8oZ6W94PKu67juw2S8TM-6" style="edgeStyle=orthogonalEdgeStyle;rounded=0;orthogonalLoop=1;jettySize=auto;html=1;exitX=0.5;exitY=1;exitDx=0;exitDy=0;entryX=0.5;entryY=0;entryDx=0;entryDy=0;" parent="1" source="8oZ6W94PKu67juw2S8TM-1" target="8oZ6W94PKu67juw2S8TM-4" edge="1">
          <mxGeometry relative="1" as="geometry" />
        </mxCell>
        <mxCell id="8oZ6W94PKu67juw2S8TM-1" value="Random Sample of Tweets" style="rounded=1;whiteSpace=wrap;html=1;labelBackgroundColor=none;" parent="1" vertex="1">
          <mxGeometry x="340" y="-1150" width="180" height="60" as="geometry" />
        </mxCell>
        <mxCell id="8oZ6W94PKu67juw2S8TM-9" style="edgeStyle=orthogonalEdgeStyle;rounded=0;orthogonalLoop=1;jettySize=auto;html=1;exitX=0.5;exitY=1;exitDx=0;exitDy=0;entryX=0.5;entryY=0;entryDx=0;entryDy=0;" parent="1" source="8oZ6W94PKu67juw2S8TM-2" target="8oZ6W94PKu67juw2S8TM-7" edge="1">
          <mxGeometry relative="1" as="geometry" />
        </mxCell>
        <mxCell id="8oZ6W94PKu67juw2S8TM-13" style="edgeStyle=orthogonalEdgeStyle;rounded=0;orthogonalLoop=1;jettySize=auto;html=1;exitX=0.5;exitY=1;exitDx=0;exitDy=0;entryX=0.5;entryY=0;entryDx=0;entryDy=0;" parent="1" source="8oZ6W94PKu67juw2S8TM-2" target="8oZ6W94PKu67juw2S8TM-11" edge="1">
          <mxGeometry relative="1" as="geometry" />
        </mxCell>
        <mxCell id="8oZ6W94PKu67juw2S8TM-2" value="Is this Complaint Marked as &lt;b&gt;relevant:true&lt;/b&gt;?" style="rounded=1;whiteSpace=wrap;html=1;labelBackgroundColor=none;" parent="1" vertex="1">
          <mxGeometry x="100" y="-1030" width="270" height="60" as="geometry" />
        </mxCell>
        <mxCell id="8oZ6W94PKu67juw2S8TM-15" style="edgeStyle=orthogonalEdgeStyle;rounded=0;orthogonalLoop=1;jettySize=auto;html=1;exitX=0.5;exitY=1;exitDx=0;exitDy=0;entryX=0.5;entryY=0;entryDx=0;entryDy=0;" parent="1" source="8oZ6W94PKu67juw2S8TM-4" target="8oZ6W94PKu67juw2S8TM-12" edge="1">
          <mxGeometry relative="1" as="geometry" />
        </mxCell>
        <mxCell id="8oZ6W94PKu67juw2S8TM-16" style="edgeStyle=orthogonalEdgeStyle;rounded=0;orthogonalLoop=1;jettySize=auto;html=1;exitX=0.5;exitY=1;exitDx=0;exitDy=0;entryX=0.5;entryY=0;entryDx=0;entryDy=0;" parent="1" source="8oZ6W94PKu67juw2S8TM-4" target="8oZ6W94PKu67juw2S8TM-14" edge="1">
          <mxGeometry relative="1" as="geometry" />
        </mxCell>
        <mxCell id="8oZ6W94PKu67juw2S8TM-4" value="Is this Non-Complaint Marked as &lt;b&gt;relevant:false&lt;/b&gt;?" style="rounded=1;whiteSpace=wrap;html=1;labelBackgroundColor=none;" parent="1" vertex="1">
          <mxGeometry x="490" y="-1030" width="280" height="60" as="geometry" />
        </mxCell>
        <mxCell id="8oZ6W94PKu67juw2S8TM-18" style="edgeStyle=orthogonalEdgeStyle;rounded=0;orthogonalLoop=1;jettySize=auto;html=1;exitX=0.5;exitY=1;exitDx=0;exitDy=0;entryX=0.5;entryY=0;entryDx=0;entryDy=0;" parent="1" source="8oZ6W94PKu67juw2S8TM-7" target="8oZ6W94PKu67juw2S8TM-17" edge="1">
          <mxGeometry relative="1" as="geometry" />
        </mxCell>
        <mxCell id="8oZ6W94PKu67juw2S8TM-7" value="YES (TP)" style="rounded=1;whiteSpace=wrap;html=1;labelBackgroundColor=none;" parent="1" vertex="1">
          <mxGeometry x="190" y="-790" width="90" height="60" as="geometry" />
        </mxCell>
        <mxCell id="8oZ6W94PKu67juw2S8TM-11" value="NO (FN)" style="rounded=1;whiteSpace=wrap;html=1;labelBackgroundColor=none;" parent="1" vertex="1">
          <mxGeometry x="70" y="-910" width="90" height="60" as="geometry" />
        </mxCell>
        <mxCell id="8oZ6W94PKu67juw2S8TM-12" value="YES (TN)" style="rounded=1;whiteSpace=wrap;html=1;labelBackgroundColor=none;" parent="1" vertex="1">
          <mxGeometry x="460" y="-910" width="90" height="60" as="geometry" />
        </mxCell>
        <mxCell id="8oZ6W94PKu67juw2S8TM-14" value="NO (FP)" style="rounded=1;whiteSpace=wrap;html=1;labelBackgroundColor=none;" parent="1" vertex="1">
          <mxGeometry x="710" y="-910" width="90" height="60" as="geometry" />
        </mxCell>
        <mxCell id="8oZ6W94PKu67juw2S8TM-21" style="edgeStyle=orthogonalEdgeStyle;rounded=0;orthogonalLoop=1;jettySize=auto;html=1;exitX=0.5;exitY=1;exitDx=0;exitDy=0;entryX=0.5;entryY=0;entryDx=0;entryDy=0;" parent="1" source="8oZ6W94PKu67juw2S8TM-17" target="8oZ6W94PKu67juw2S8TM-19" edge="1">
          <mxGeometry relative="1" as="geometry" />
        </mxCell>
        <mxCell id="8oZ6W94PKu67juw2S8TM-22" style="edgeStyle=orthogonalEdgeStyle;rounded=0;orthogonalLoop=1;jettySize=auto;html=1;exitX=0.5;exitY=1;exitDx=0;exitDy=0;entryX=0.5;entryY=0;entryDx=0;entryDy=0;" parent="1" source="8oZ6W94PKu67juw2S8TM-17" target="8oZ6W94PKu67juw2S8TM-20" edge="1">
          <mxGeometry relative="1" as="geometry" />
        </mxCell>
        <mxCell id="8oZ6W94PKu67juw2S8TM-17" value="Is the topic marked correctly?" style="rounded=1;whiteSpace=wrap;html=1;labelBackgroundColor=none;" parent="1" vertex="1">
          <mxGeometry x="140" y="-670" width="190" height="60" as="geometry" />
        </mxCell>
        <mxCell id="8oZ6W94PKu67juw2S8TM-19" value="YES" style="rounded=1;whiteSpace=wrap;html=1;labelBackgroundColor=none;" parent="1" vertex="1">
          <mxGeometry x="65" y="-550" width="90" height="60" as="geometry" />
        </mxCell>
        <mxCell id="8oZ6W94PKu67juw2S8TM-20" value="NO" style="rounded=1;whiteSpace=wrap;html=1;labelBackgroundColor=none;" parent="1" vertex="1">
          <mxGeometry x="315" y="-550" width="90" height="60" as="geometry" />
        </mxCell>
      </root>
    </mxGraphModel>
  </diagram>
</mxfile>
